# xmcd
#
# Track frame offsets:
#	150
#	13000
#	22152
#	34684
#	48521
#	57996
#	75733
#	85049
#	98666
#	110638
#	123441
#	134104
#	146905
#	157582
#	169451
#
# Disc length: 2471 seconds
#
# Revision: 1
# Processed by: cddbd v1.4PL0 Copyright (c) Steve Scherf et al.
# Submitted via: audiograbber 1.81.03
#
DISCID=cc09a50f
DTITLE=Graciela Beltran - 15 Grandes Exitos con Banda y Mariachi Vol 2
DYEAR=1999
DGENRE=Latin
TTITLE0=Ya No Quiero que Vuelvas
TTITLE1=Tu Recado
TTITLE2=Me Gustaria Saber
TTITLE3=Celda Marcada
TTITLE4=Nadie Nadie
TTITLE5=Mi Primer Amor
TTITLE6=Serenata A Mi Madre
TTITLE7=Cheque al Portador
TTITLE8=Tu Recado (2nd Version)
TTITLE9=Amor Fracasado
TTITLE10=La Prietita
TTITLE11=Mi Triunfo
TTITLE12=Ojitos Encantadores
TTITLE13=La Barquita
TTITLE14=No Me Trates Mal
EXTD=
EXTT0=
EXTT1=
EXTT2=
EXTT3=
EXTT4=
EXTT5=
EXTT6=
EXTT7=
EXTT8=
EXTT9=
EXTT10=
EXTT11=
EXTT12=
EXTT13=
EXTT14=
PLAYORDER=
